<?xml version="1.0" encoding="utf-8"?>
<!-- Generator: Adobe Illustrator 21.1.0, SVG Export Plug-In . SVG Version: 6.00 Build 0)  -->
<svg version="1.1" id="Layer_1" xmlns="http://www.w3.org/2000/svg" xmlns:xlink="http://www.w3.org/1999/xlink" x="0px" y="0px"
	 viewBox="0 0 200 200" style="enable-background:new 0 0 200 200;" xml:space="preserve">
<style type="text/css">
	.st0{fill-rule:evenodd;clip-rule:evenodd;}
</style>
<path d="M144.9,80.9c0-24.7-20.2-44.9-44.9-44.9S55.1,56,55.1,80.9c0,23.6,18.2,43,41.5,44.8v10.5H79c-1.9,0-3.5,1.5-3.5,3.5
	s1.5,3.5,3.5,3.5h17.4v17.4c0,1.9,1.5,3.5,3.5,3.5c1.9,0,3.5-1.5,3.5-3.5v-17.4h17.4c1.9,0,3.5-1.5,3.5-3.5s-1.5-3.5-3.5-3.5h-17.3
	v-10.5C126.5,123.9,144.9,104.4,144.9,80.9z M62,80.9c0-21,17-38,38-38s38,17,38,38s-17.1,38-38,38S62,101.8,62,80.9z"/>
</svg>
