<?xml version="1.0" encoding="utf-8"?>
<!-- Generator: Adobe Illustrator 21.1.0, SVG Export Plug-In . SVG Version: 6.00 Build 0)  -->
<svg version="1.1" id="Layer_1" xmlns="http://www.w3.org/2000/svg" xmlns:xlink="http://www.w3.org/1999/xlink" x="0px" y="0px"
	 viewBox="0 0 200 200" style="enable-background:new 0 0 200 200;" xml:space="preserve">
<style type="text/css">
	.st0{fill-rule:evenodd;clip-rule:evenodd;}
</style>
<path d="M131.3,36v4.3h25.3l-34.4,34.4c-9.5-8.8-21.8-13.6-34.8-13.6c-13.7,0-26.6,5.3-36.3,15.1c-20,20-20,52.6,0,72.7
	c9.7,9.7,22.6,15.1,36.3,15.1c13.7,0,26.6-5.3,36.3-15.1c19.5-19.5,20-51,1.5-71.1l34.4-34.4l0,25.3h4.3l0-32.7L131.3,36z
	 M119.2,144.4c-8.5,8.5-19.8,13.2-31.8,13.2c-12,0-23.3-4.7-31.8-13.2C38,126.9,38,98.3,55.6,80.8c8.5-8.5,19.8-13.2,31.8-13.2
	c12,0,23.3,4.7,31.8,13.2C136.8,98.3,136.8,126.9,119.2,144.4z"/>
</svg>
