<svg width="76" height="30" viewBox="0 0 76 30" fill="none" xmlns="http://www.w3.org/2000/svg">
<path d="M60.5939 18.5537H42.3937C41.4351 18.5537 40.5158 18.1666 39.8379 17.4776C39.1601 16.7885 38.7793 15.8539 38.7793 14.8795C38.7793 13.905 39.1601 12.9704 39.8379 12.2814C40.5158 11.5923 41.4351 11.2052 42.3937 11.2052H60.5939C61.0685 11.2052 61.5385 11.3002 61.9771 11.4849C62.4156 11.6695 62.814 11.9402 63.1497 12.2814C63.4853 12.6226 63.7515 13.0276 63.9332 13.4734C64.1148 13.9192 64.2083 14.397 64.2083 14.8795C64.2083 15.362 64.1148 15.8398 63.9332 16.2855C63.7515 16.7313 63.4853 17.1364 63.1497 17.4776C62.814 17.8188 62.4156 18.0894 61.9771 18.274C61.5385 18.4587 61.0685 18.5537 60.5939 18.5537V18.5537Z" fill="#4595A4"/>
<path d="M60.5931 29.759H42.3929C38.5109 29.759 34.7879 28.1913 32.043 25.4009C29.298 22.6104 27.7559 18.8258 27.7559 14.8795C27.7559 10.9332 29.298 7.14854 32.043 4.3581C34.7879 1.56766 38.5109 0 42.3929 0H60.5931C64.4751 0 68.1981 1.56766 70.9431 4.3581C73.6881 7.14854 75.2302 10.9332 75.2302 14.8795C75.2302 18.8258 73.6881 22.6104 70.9431 25.4009C68.1981 28.1913 64.4751 29.759 60.5931 29.759V29.759ZM42.3929 7.03583C40.3465 7.03583 38.384 7.86221 36.937 9.33318C35.49 10.8042 34.6771 12.7992 34.6771 14.8795C34.6771 16.9597 35.49 18.9548 36.937 20.4258C38.384 21.8967 40.3465 22.7231 42.3929 22.7231H60.5931C62.6395 22.7231 64.6021 21.8967 66.0491 20.4258C67.4961 18.9548 68.309 16.9597 68.309 14.8795C68.309 12.7992 67.4961 10.8042 66.0491 9.33318C64.6021 7.86221 62.6395 7.03583 60.5931 7.03583H42.3929Z" fill="#4595A4"/>
<path d="M23.9111 14.8795C23.913 13.7748 24.0237 12.6731 24.2418 11.5909H13.6447V18.6267H19.5687V22.7231H15.4339C13.3876 22.7231 11.425 21.8967 9.97801 20.4258C8.531 18.9548 7.71808 16.9597 7.71808 14.8795C7.71808 12.7992 8.531 10.8042 9.97801 9.33318C11.425 7.86221 13.3876 7.03583 15.4339 7.03583H25.8593C27.4181 4.11363 29.7336 1.68056 32.5549 0L15.4339 0C11.552 0 7.82896 1.56766 5.08398 4.3581C2.339 7.14854 0.796875 10.9332 0.796875 14.8795C0.796875 18.8258 2.339 22.6104 5.08398 25.4009C7.82896 28.1913 11.552 29.759 15.4339 29.759H32.5549C27.3666 26.6319 23.9111 21.1336 23.9111 14.8795Z" fill="#4595A4"/>
</svg>
